<?xml version="1.0" encoding="UTF-8" standalone="no"?>
<!-- Created with Inkscape (http://www.inkscape.org/) -->

<svg
   width="800"
   height="800"
   viewBox="0 0 211.66667 211.66667"
   version="1.1"
   id="svg1"
   inkscape:version="1.3.2 (091e20e, 2023-11-25, custom)"
   sodipodi:docname="icon.svg"
   xmlns:inkscape="http://www.inkscape.org/namespaces/inkscape"
   xmlns:sodipodi="http://sodipodi.sourceforge.net/DTD/sodipodi-0.dtd"
   xmlns="http://www.w3.org/2000/svg"
   xmlns:svg="http://www.w3.org/2000/svg">
  <sodipodi:namedview
     id="namedview1"
     pagecolor="#ffffff"
     bordercolor="#000000"
     borderopacity="0.25"
     inkscape:showpageshadow="2"
     inkscape:pageopacity="0.0"
     inkscape:pagecheckerboard="0"
     inkscape:deskcolor="#d1d1d1"
     inkscape:document-units="mm"
     inkscape:zoom="0.56745319"
     inkscape:cx="261.69559"
     inkscape:cy="370.07458"
     inkscape:window-width="1584"
     inkscape:window-height="838"
     inkscape:window-x="-7"
     inkscape:window-y="0"
     inkscape:window-maximized="0"
     inkscape:current-layer="layer1" />
  <defs
     id="defs1">
    <inkscape:path-effect
       effect="fillet_chamfer"
       id="path-effect1"
       is_visible="true"
       lpeversion="1"
       nodesatellites_param="F,0,0,1,0,15.902361,0,1 @ F,0,0,1,0,12.768662,0,1 @ F,0,0,1,0,12.160628,0,1 @ F,0,0,1,0,11.833229,0,1"
       radius="0"
       unit="px"
       method="auto"
       mode="F"
       chamfer_steps="1"
       flexible="false"
       use_knot_distance="true"
       apply_no_radius="true"
       apply_with_radius="true"
       only_selected="false"
       hide_knots="false" />
    <inkscape:path-effect
       effect="fillet_chamfer"
       id="path-effect1-5"
       is_visible="true"
       lpeversion="1"
       nodesatellites_param="F,0,0,1,0,15.902361,0,1 @ F,0,0,1,0,12.768662,0,1 @ F,0,0,1,0,12.160628,0,1 @ F,0,0,1,0,11.833229,0,1"
       radius="0"
       unit="px"
       method="auto"
       mode="F"
       chamfer_steps="1"
       flexible="false"
       use_knot_distance="true"
       apply_no_radius="true"
       apply_with_radius="true"
       only_selected="false"
       hide_knots="false" />
  </defs>
  <g
     inkscape:label="Layer 1"
     inkscape:groupmode="layer"
     id="layer1">
    <path
       style="fill:#f5bd00;fill-opacity:1;stroke:none;stroke-width:11.0274;stroke-linejoin:round;stroke-dasharray:none;stroke-opacity:1"
       id="rect1-7"
       width="144.99211"
       height="146.39528"
       x="31.337008"
       y="32.740154"
       inkscape:path-effect="#path-effect1-5"
       sodipodi:type="rect"
       d="M 47.239369,32.740154 H 163.56046 a 12.768662,12.768662 45 0 1 12.76866,12.768662 V 166.97481 a 12.160628,12.160628 135 0 1 -12.16063,12.16062 l -120.998253,0 A 11.833229,11.833229 45 0 1 31.337008,167.3022 l 0,-118.659685 A 15.902361,15.902361 135 0 1 47.239369,32.740154 Z"
       transform="matrix(1.1824398,0,0,1.21715,-13.770816,-9.1579926)" />
    <path
       style="fill:#f5db7f;fill-opacity:1;stroke:none;stroke-width:11.1961;stroke-linejoin:round;stroke-dasharray:none;stroke-opacity:1"
       id="rect1"
       width="144.99211"
       height="146.39528"
       x="31.337008"
       y="32.740154"
       inkscape:path-effect="#path-effect1"
       sodipodi:type="rect"
       d="M 47.239369,32.740154 H 163.56046 a 12.768662,12.768662 45 0 1 12.76866,12.768662 V 166.97481 a 12.160628,12.160628 135 0 1 -12.16063,12.16062 l -120.998253,0 A 11.833229,11.833229 45 0 1 31.337008,167.3022 l 0,-118.659685 A 15.902361,15.902361 135 0 1 47.239369,32.740154 Z"
       transform="matrix(1.1470661,0,0,1.21715,-20.56782,-19.890063)" />
    <path
       style="fill:#000000;fill-opacity:1;stroke:#5b5b5b;stroke-width:18;stroke-linecap:round;stroke-linejoin:round;stroke-dasharray:none;stroke-opacity:1"
       d="M 45.125686,9.7253064 V 33.832934"
       id="path5"
       sodipodi:nodetypes="cc" />
    <path
       style="fill:#000000;fill-opacity:1;stroke:#5b5b5b;stroke-width:18;stroke-linecap:round;stroke-linejoin:round;stroke-dasharray:none;stroke-opacity:1"
       d="M 81.596466,9.7253064 V 33.832934"
       id="path5-9"
       sodipodi:nodetypes="cc" />
    <path
       style="fill:#000000;fill-opacity:1;stroke:#5b5b5b;stroke-width:18;stroke-linecap:round;stroke-linejoin:round;stroke-dasharray:none;stroke-opacity:1"
       d="M 118.06722,9.7253064 V 33.832934"
       id="path5-5"
       sodipodi:nodetypes="cc" />
    <path
       style="fill:#000000;fill-opacity:1;stroke:#5b5b5b;stroke-width:18;stroke-linecap:round;stroke-linejoin:round;stroke-dasharray:none;stroke-opacity:1"
       d="M 154.538,9.7253064 V 33.832934"
       id="path5-1"
       sodipodi:nodetypes="cc" />
    <path
       d="m 35.547004,64.118511 4.03575,-4.540827 25.111328,22.949588 -25.111328,22.949588 -4.03575,-4.49992 20.365587,-18.367851 z m 35.188741,0 4.035749,-4.540827 25.111329,22.949588 -25.111329,22.949588 -4.035749,-4.49992 20.365589,-18.367851 z m 35.188775,0 4.03575,-4.540827 25.11133,22.949588 -25.11133,22.949588 -4.03575,-4.49992 20.36559,-18.367851 z"
       id="text5"
       style="font-size:88.1944px;font-family:Consolas;-inkscape-font-specification:Consolas;letter-spacing:-7.9375px;stroke:#000000;stroke-width:5.8551;stroke-linecap:round;stroke-linejoin:round"
       aria-label="&gt;&gt;&gt;" />
  </g>
</svg>
