<svg xmlns="http://www.w3.org/2000/svg" width="35000" height="6100" xmlns:bx="https://boxy-svg.com" viewBox="-1000 4000 37000 7500">
<!--  <defs>-->
<!--    <style bx:fonts="Comfortaa">@import url(https://fonts.googleapis.com/css2?family=Comfortaa%3Aital%2Cwght%400%2C300..700&display=swap);</style>-->
<!--    <style bx:fonts="Comfortaa">@import url(https://fonts.googleapis.com/css2?family=Comfortaa%3Aital%2Cwght%400%2C300..700&display=swap);</style>-->
<!--    <rect x="-1000" y="3000" width="37000" height="7200" style="fill: rgb(216, 216, 216); stroke: rgb(0, 0, 0);" transform="matrix(0.9999999999999999, 0, 0, 0.9999999999999999, 0, -3.637978807091713e-12)"/>-->
<!--    <text style="fill: rgb(51, 51, 51); font-family: Comfortaa; font-size: 5967.1px; letter-spacing: -20px; white-space: pre;" y="9737.163" x="4503.699" transform="matrix(0.9999999999999999, 0, 0, 0.9999999999999999, 0, -3.637978807091713e-12)">imx:Editor</text>-->
<!--  </defs>-->
  <g transform="matrix(1, 0, 0, 1, 0, 524.1110155653475)">
    <path d="M 5368.93 10261.271 C 5297.324 10261.271 5240.637 10240.386 5198.867 10198.617 C 5157.097 10156.847 5136.213 10100.159 5136.213 10028.554 L 5136.213 7229.984 C 5136.213 7158.379 5157.097 7101.691 5198.867 7059.922 C 5240.637 7018.152 5297.324 6997.267 5368.93 6997.267 C 5436.556 6997.267 5491.255 7018.152 5533.025 7059.922 C 5574.795 7101.691 5595.68 7158.379 5595.68 7229.984 L 5595.68 10028.554 C 5595.68 10100.159 5574.795 10156.847 5533.025 10198.617 C 5491.255 10240.386 5436.556 10261.271 5368.93 10261.271 Z M 5362.963 6376.689 C 5275.445 6376.689 5199.861 6344.864 5136.213 6281.215 C 5072.563 6217.566 5040.739 6139.994 5040.739 6048.498 C 5040.739 5949.047 5073.558 5870.48 5139.196 5812.798 C 5204.834 5755.116 5281.412 5726.275 5368.93 5726.275 C 5452.469 5726.275 5527.058 5755.116 5592.696 5812.798 C 5658.334 5870.48 5691.153 5949.047 5691.153 6048.498 C 5691.153 6139.994 5659.328 6217.566 5595.68 6281.215 C 5532.03 6344.864 5454.458 6376.689 5362.963 6376.689 Z M 11154.629 10261.271 C 11087.001 10261.271 11031.308 10240.386 10987.55 10198.617 C 10943.791 10156.847 10921.912 10102.148 10921.912 10034.521 L 10921.912 8315.997 C 10921.912 8033.554 10848.317 7809.787 10701.129 7644.698 C 10553.941 7479.608 10364.983 7397.063 10134.255 7397.063 C 9887.615 7397.063 9685.728 7479.608 9528.594 7644.698 C 9371.46 7809.787 9294.883 8029.575 9298.861 8304.062 L 8887.131 8304.062 C 8891.109 8037.532 8948.791 7802.826 9060.177 7599.944 C 9171.563 7397.063 9324.718 7239.929 9519.643 7128.544 C 9714.568 7017.158 9935.351 6961.465 10181.992 6961.465 C 10416.697 6961.465 10624.551 7017.158 10805.553 7128.544 C 10986.555 7239.929 11127.777 7397.063 11229.218 7599.944 C 11330.658 7802.826 11381.379 8041.51 11381.379 8315.997 L 11381.379 10034.521 C 11381.379 10102.148 11360.494 10156.847 11318.724 10198.617 C 11276.954 10240.386 11222.256 10261.271 11154.629 10261.271 Z M 6977.659 10261.271 C 6906.053 10261.271 6849.366 10240.386 6807.596 10198.617 C 6765.826 10156.847 6744.942 10102.148 6744.942 10034.521 L 6744.942 7229.984 C 6744.942 7162.357 6765.826 7106.664 6807.596 7062.905 C 6849.366 7019.146 6906.053 6997.267 6977.659 6997.267 C 7045.285 6997.267 7099.984 7019.146 7141.754 7062.905 C 7183.524 7106.664 7204.409 7162.357 7204.409 7229.984 L 7204.409 10034.521 C 7204.409 10102.148 7183.524 10156.847 7141.754 10198.617 C 7099.984 10240.386 7045.285 10261.271 6977.659 10261.271 Z M 9072.111 10261.271 C 9004.483 10261.271 8948.79 10240.386 8905.032 10198.617 C 8861.273 10156.847 8839.394 10102.148 8839.394 10034.521 L 8839.394 8315.997 C 8839.394 8033.554 8765.799 7809.787 8618.611 7644.698 C 8471.423 7479.608 8282.465 7397.063 8051.737 7397.063 C 7805.097 7397.063 7602.215 7477.619 7443.093 7638.731 C 7283.97 7799.842 7204.409 8009.685 7204.409 8268.26 L 6876.218 8268.26 C 6884.174 8013.663 6940.861 7787.908 7046.28 7590.994 C 7151.699 7394.079 7295.904 7239.929 7478.895 7128.544 C 7661.886 7017.158 7868.746 6961.465 8099.474 6961.465 C 8334.179 6961.465 8542.033 7017.158 8723.036 7128.544 C 8904.038 7239.929 9045.259 7397.063 9146.7 7599.944 C 9248.14 7802.826 9298.861 8041.51 9298.861 8315.997 L 9298.861 10034.521 C 9298.861 10102.148 9277.976 10156.847 9236.206 10198.617 C 9194.436 10240.386 9139.738 10261.271 9072.111 10261.271 Z M 14655.426 10261.271 C 14607.689 10261.271 14568.903 10253.315 14539.068 10237.403 C 14509.232 10221.49 14478.402 10193.644 14446.578 10153.863 L 13414.27 8841.101 L 13235.257 8685.957 L 12196.981 7367.228 C 12153.222 7315.513 12132.337 7261.809 12134.327 7206.116 C 12136.315 7150.423 12155.211 7101.691 12191.014 7059.922 C 12226.816 7018.152 12278.531 6997.267 12346.159 6997.267 C 12413.785 6997.267 12471.467 7021.136 12519.204 7068.873 L 13521.677 8351.799 L 13682.789 8483.075 L 14792.67 9903.245 C 14844.384 9966.894 14866.264 10026.565 14858.308 10082.258 C 14850.352 10137.951 14825.489 10181.71 14783.719 10213.534 C 14741.949 10245.359 14699.184 10261.271 14655.426 10261.271 Z M 12292.455 10261.271 C 12228.805 10261.271 12178.085 10241.381 12140.294 10201.6 C 12102.502 10161.819 12082.611 10114.083 12080.623 10058.39 C 12078.633 10002.697 12099.518 9948.993 12143.277 9897.278 L 13241.224 8524.845 L 13497.809 8864.97 L 12453.566 10189.666 C 12417.763 10237.403 12364.059 10261.271 12292.455 10261.271 Z M 13688.756 8709.825 L 13396.368 8411.47 L 14428.677 7104.675 C 14456.523 7064.894 14487.353 7037.048 14521.167 7021.136 C 14554.98 7005.223 14589.788 6997.267 14625.591 6997.267 C 14693.218 6997.267 14744.933 7018.152 14780.735 7059.922 C 14816.537 7101.691 14833.444 7151.417 14831.456 7209.099 C 14829.466 7266.781 14808.581 7321.48 14768.801 7373.195 L 13688.756 8709.825 Z M 15625.672 7731.221 C 15530.198 7731.221 15447.653 7698.402 15378.037 7632.764 C 15308.421 7567.125 15273.613 7484.58 15273.613 7385.129 C 15273.613 7285.677 15307.426 7202.138 15375.054 7134.511 C 15442.68 7066.884 15526.22 7033.07 15625.672 7033.07 C 15721.145 7033.07 15801.701 7067.878 15867.339 7137.494 C 15932.977 7207.11 15965.797 7289.655 15965.797 7385.129 C 15965.797 7480.602 15932.977 7562.153 15867.339 7629.78 C 15801.701 7697.407 15721.145 7731.221 15625.672 7731.221 Z M 15637.606 10356.745 C 15542.132 10356.745 15460.582 10322.931 15392.955 10255.304 C 15325.327 10187.677 15291.514 10106.126 15291.514 10010.653 C 15291.514 9911.201 15326.322 9827.662 15395.938 9760.035 C 15465.554 9692.408 15546.11 9658.594 15637.606 9658.594 C 15733.079 9658.594 15814.629 9693.402 15882.257 9763.018 C 15949.884 9832.635 15983.698 9915.18 15983.698 10010.653 C 15983.698 10102.148 15950.879 10182.704 15885.241 10252.321 C 15819.603 10321.937 15737.058 10356.745 15637.606 10356.745 Z M 17061.552 10261.271 C 16993.924 10261.271 16938.231 10239.392 16894.473 10195.633 C 16850.714 10151.874 16828.835 10096.181 16828.835 10028.554 L 16828.835 5833.683 C 16828.835 5766.056 16850.714 5710.363 16894.473 5666.604 C 16938.231 5622.845 16993.924 5600.966 17061.552 5600.966 L 19860.122 5600.966 C 19923.77 5600.966 19978.469 5621.851 20024.217 5663.62 C 20069.965 5705.39 20092.839 5760.089 20092.839 5827.716 C 20092.839 5887.387 20069.965 5939.101 20024.217 5982.86 C 19978.469 6026.619 19923.77 6048.498 19860.122 6048.498 L 17294.269 6048.498 L 17294.269 7695.418 L 19161.971 7695.418 C 19229.598 7695.418 19285.291 7717.297 19329.05 7761.056 C 19372.808 7804.815 19394.688 7858.519 19394.688 7922.168 C 19394.688 7985.817 19372.808 8039.521 19329.05 8083.28 C 19285.291 8127.039 19229.598 8148.918 19161.971 8148.918 L 17294.269 8148.918 L 17294.269 9813.739 L 19860.122 9813.739 C 19923.77 9813.739 19978.469 9835.618 20024.217 9879.377 C 20069.965 9923.136 20092.839 9974.85 20092.839 10034.521 C 20092.839 10102.148 20069.965 10156.847 20024.217 10198.617 C 19978.469 10240.386 19923.77 10261.271 19860.122 10261.271 L 17061.552 10261.271 Z M 22364.499 10291.107 C 22050.231 10291.107 21767.789 10218.507 21517.171 10073.308 C 21266.553 9928.108 21068.644 9730.199 20923.445 9479.581 C 20778.245 9228.963 20705.645 8944.531 20705.645 8626.286 C 20705.645 8312.019 20776.256 8029.576 20917.478 7778.957 C 21058.699 7528.339 21250.641 7330.43 21493.303 7185.231 C 21735.965 7040.032 22010.451 6967.432 22316.762 6967.432 C 22583.292 6967.432 22823.966 7024.119 23038.782 7137.494 C 23253.597 7250.869 23426.643 7401.041 23557.919 7588.01 L 23557.919 5833.683 C 23557.919 5762.078 23579.798 5705.39 23623.557 5663.62 C 23667.316 5621.851 23723.009 5600.966 23790.636 5600.966 C 23858.263 5600.966 23913.956 5621.851 23957.715 5663.62 C 24001.473 5705.39 24023.353 5762.078 24023.353 5833.683 L 24023.353 8650.154 C 24015.397 8960.443 23938.819 9239.903 23793.62 9488.532 C 23648.42 9737.161 23451.506 9933.08 23202.877 10076.291 C 22954.247 10219.502 22674.788 10291.107 22364.499 10291.107 Z M 22364.499 9873.41 C 22595.227 9873.41 22801.092 9818.711 22982.094 9709.314 C 23163.096 9599.917 23306.306 9451.734 23411.725 9264.765 C 23517.144 9077.796 23569.854 8864.97 23569.854 8626.286 C 23569.854 8391.58 23517.144 8179.748 23411.725 7990.79 C 23306.306 7801.831 23163.096 7653.648 22982.094 7546.241 C 22801.092 7438.833 22595.227 7385.129 22364.499 7385.129 C 22137.749 7385.129 21932.879 7438.833 21749.888 7546.241 C 21566.896 7653.648 21421.697 7801.831 21314.29 7990.79 C 21206.882 8179.748 21153.178 8391.58 21153.178 8626.286 C 21153.178 8864.97 21206.882 9077.796 21314.29 9264.765 C 21421.697 9451.734 21566.896 9599.917 21749.888 9709.314 C 21932.879 9818.711 22137.749 9873.41 22364.499 9873.41 Z M 25405.634 10261.271 C 25334.028 10261.271 25277.341 10240.386 25235.571 10198.617 C 25193.801 10156.847 25172.917 10100.159 25172.917 10028.554 L 25172.917 7229.984 C 25172.917 7158.379 25193.801 7101.691 25235.571 7059.922 C 25277.341 7018.152 25334.028 6997.267 25405.634 6997.267 C 25473.261 6997.267 25527.959 7018.152 25569.729 7059.922 C 25611.499 7101.691 25632.384 7158.379 25632.384 7229.984 L 25632.384 10028.554 C 25632.384 10100.159 25611.499 10156.847 25569.729 10198.617 C 25527.959 10240.386 25473.261 10261.271 25405.634 10261.271 Z M 25399.667 6376.689 C 25312.149 6376.689 25236.566 6344.864 25172.917 6281.215 C 25109.267 6217.566 25077.443 6139.994 25077.443 6048.498 C 25077.443 5949.047 25110.262 5870.48 25175.9 5812.798 C 25241.538 5755.116 25318.116 5726.275 25405.634 5726.275 C 25489.173 5726.275 25563.762 5755.116 25629.4 5812.798 C 25695.038 5870.48 25727.857 5949.047 25727.857 6048.498 C 25727.857 6139.994 25696.032 6217.566 25632.384 6281.215 C 25568.734 6344.864 25491.162 6376.689 25399.667 6376.689 Z M 28058.606 10261.271 C 27847.768 10261.271 27659.805 10211.545 27494.715 10112.094 C 27329.625 10012.642 27199.343 9876.393 27103.87 9703.347 C 27008.396 9530.301 26960.659 9332.392 26960.659 9109.621 L 26960.659 6191.709 C 26960.659 6124.082 26981.544 6068.389 27023.314 6024.63 C 27065.084 5980.871 27119.782 5958.992 27187.409 5958.992 C 27255.036 5958.992 27310.729 5980.871 27354.488 6024.63 C 27398.246 6068.389 27420.126 6124.082 27420.126 6191.709 L 27420.126 9109.621 C 27420.126 9312.502 27479.797 9478.587 27599.139 9607.874 C 27718.481 9737.161 27871.636 9801.804 28058.606 9801.804 L 28219.718 9801.804 C 28283.366 9801.804 28335.081 9823.684 28374.862 9867.443 C 28414.642 9911.202 28434.533 9966.894 28434.533 10034.521 C 28434.533 10102.148 28410.664 10156.847 28362.928 10198.617 C 28315.191 10240.386 28255.52 10261.271 28183.915 10261.271 L 28058.606 10261.271 Z M 26572.798 7516.405 C 26513.126 7516.405 26463.4 7497.509 26423.62 7459.718 C 26383.839 7421.926 26363.949 7375.184 26363.949 7319.491 C 26363.949 7259.82 26383.839 7211.088 26423.62 7173.297 C 26463.4 7135.505 26513.126 7116.609 26572.798 7116.609 L 28094.408 7116.609 C 28154.079 7116.609 28203.805 7135.505 28243.586 7173.297 C 28283.366 7211.088 28303.257 7259.82 28303.257 7319.491 C 28303.257 7375.184 28283.366 7421.926 28243.586 7459.718 C 28203.805 7497.509 28154.079 7516.405 28094.408 7516.405 L 26572.798 7516.405 Z M 30646.482 10291.107 C 30328.236 10291.107 30043.804 10219.502 29793.186 10076.291 C 29542.568 9933.08 29345.653 9736.166 29202.443 9485.548 C 29059.233 9234.93 28987.628 8950.498 28987.628 8632.253 C 28987.628 8310.03 29059.233 8023.609 29202.443 7772.99 C 29345.653 7522.372 29542.568 7325.458 29793.186 7182.247 C 30043.804 7039.037 30328.236 6967.432 30646.482 6967.432 C 30964.727 6967.432 31248.164 7039.037 31496.793 7182.247 C 31745.422 7325.458 31941.342 7522.372 32084.553 7772.99 C 32227.763 8023.609 32301.357 8310.03 32305.336 8632.253 C 32305.336 8950.498 32232.736 9234.93 32087.536 9485.548 C 31942.336 9736.166 31745.422 9933.08 31496.793 10076.291 C 31248.164 10219.502 30964.727 10291.107 30646.482 10291.107 Z M 30646.482 9873.41 C 30877.21 9873.41 31084.069 9819.706 31267.06 9712.298 C 31450.051 9604.89 31593.261 9457.702 31696.691 9270.733 C 31800.121 9083.764 31851.836 8870.937 31851.836 8632.253 C 31851.836 8393.569 31800.121 8179.748 31696.691 7990.79 C 31593.261 7801.831 31450.051 7653.648 31267.06 7546.241 C 31084.069 7438.833 30877.21 7385.129 30646.482 7385.129 C 30415.754 7385.129 30208.894 7438.833 30025.903 7546.241 C 29842.912 7653.648 29698.707 7801.831 29593.289 7990.79 C 29487.869 8179.748 29435.16 8393.569 29435.16 8632.253 C 29435.16 8870.937 29487.869 9083.764 29593.289 9270.733 C 29698.707 9457.702 29842.912 9604.89 30025.903 9712.298 C 30208.894 9819.706 30415.754 9873.41 30646.482 9873.41 Z M 33371.453 8250.358 C 33383.387 8003.718 33448.03 7782.935 33565.384 7588.01 C 33682.736 7393.085 33835.892 7239.929 34024.85 7128.544 C 34213.808 7017.158 34423.652 6961.465 34654.38 6961.465 C 34837.37 6961.465 34978.592 6987.322 35078.044 7039.037 C 35177.495 7090.752 35215.287 7166.335 35191.419 7265.787 C 35175.506 7325.458 35148.654 7365.238 35110.863 7385.129 C 35073.071 7405.019 35027.323 7412.975 34973.619 7408.997 C 34919.915 7405.019 34859.25 7401.041 34791.623 7397.063 C 34568.851 7377.173 34370.942 7400.047 34197.896 7465.685 C 34024.85 7531.323 33887.607 7631.769 33786.166 7767.023 C 33684.725 7902.278 33634.005 8063.389 33634.005 8250.358 L 33371.453 8250.358 Z M 33407.256 10261.271 C 33335.65 10261.271 33279.957 10241.381 33240.177 10201.6 C 33200.396 10161.819 33180.506 10106.126 33180.506 10034.521 L 33180.506 7224.017 C 33180.506 7152.412 33200.396 7096.719 33240.177 7056.938 C 33279.957 7017.157 33335.65 6997.267 33407.256 6997.267 C 33478.86 6997.267 33534.553 7017.157 33574.334 7056.938 C 33614.114 7096.719 33634.005 7152.412 33634.005 7224.017 L 33634.005 10034.521 C 33634.005 10106.126 33614.114 10161.819 33574.334 10201.6 C 33534.553 10241.381 33478.86 10261.271 33407.256 10261.271 Z" style="stroke-linecap: round; stroke-miterlimit: 1; stroke-width: 14px; fill: rgb(255, 255, 255);" transform="matrix(1.0000000000000002, 0, 0, 1, 0, 0)"></path>
    <g name="sign-normal-base" fill="black" stroke="black" stroke-width="0.375" style="transform-origin: 5px 0px;" transform="matrix(0, -475.106018, 475.104645, 0, 1092.089828, 7778.583387)">
      <line x1="0" x2="0" y1="-1" y2="1" transform=""></line>
      <line x1="10" x2="0" y1="0" y2="0" transform=""></line>
    </g>
    <g name="arrow-sign" fill="black" stroke="black" stroke-width="0.375" style="transform-origin: 3.294px -0.0420001px;" transform="matrix(0, -752.968689, 752.966675, 0, 1074.146347, 6804.751369)">
      <rect x="0" y="0" width="1.412" height="2.384" fill="#bcbcbc" transform="rotate(180), translate(-4, -1.15)" style="stroke-width: 0.233593px;"></rect>
      <line x1="0.755" y1="1.228" x2="0.743" y2="1.958" stroke="#000000" transform="rotate(180), translate(-4, -1.15)" stroke-width="0.1"></line>
      <path d="M 0.751 0.527 L 1.047 1.279 L 0.455 1.279 L 0.751 0.527 Z" fill="#000000" stroke="#000000" transform="rotate(180), translate(-4, -1.15)" stroke-width="0.1"></path>
    </g>
    <g name="RS-513" fill="black" stroke="black" stroke-width="0.375" style="transform-origin: 5.2px 0px;" transform="matrix(0, -752.968689, 752.966675, 0, 1086.056503, 5023.968191)">
      <rect y="-2" width="2" height="4" fill="#FFFFFF" transform="translate(4.2, 0)"></rect>
      <path d="M 0.75 -2 L 1.25 -2 L 1.25 2 L 0.75 2 L 0.75 -2" fill="red" transform="translate(4.2, 0)" stroke-width="0.1"></path>
      <rect y="-2" width="2" height="4" fill="none" transform="translate(4.2, 0)"></rect>
    </g>
    <path style="stroke: rgb(0, 0, 0); fill: rgb(217, 214, 175); transform-box: fill-box; transform-origin: 50% 50%;" d="M 306.632 10307.519 C 306.632 10307.519 416.930676971693 10153.42412968672 480.124 10117.763 C 530.8807402035778 10089.1200578641 593.067652281579 10114.341820806327 642.773 10085.233 C 703.786281871744 10049.501941465382 729.2894570088289 9932.458051771076 805.422 9895.475 C 899.9482340103231 9849.556809581303 1102.597231545921 9932.79462678799 1190.357 9879.21 C 1264.4156374768522 9833.991051505385 1268.6675918312894 9708.178889874118 1325.898 9640.658 C 1381.4220900716696 9575.150237762165 1447.2738491397658 9506.09204461443 1526.497 9478.01 C 1611.6256391259735 9447.834650800387 1730.5186899506868 9444.292582983848 1824.686 9478.01 C 1932.7796943436808 9516.713878947945 2026.0890291499993 9695.843583261945 2128.297 9727.405 C 2208.9952615977973 9752.32430368193 2293.5839108659748 9681.456794248836 2372.27 9705.718 C 2466.4063488538272 9734.742969385834 2554.277011432048 9912.615261500127 2643.351 9928.005 C 2714.656668244162 9940.32482092055 2778.4608549635077 9844.42060746575 2854.795 9852.102 C 2954.957524516909 9862.181207249492 3072.4828644509753 10011.496262361658 3185.514 10052.703 C 3288.035818719685 10090.078451159256 3409.6965603753374 10060.347617278534 3499.969 10101.498 C 3585.2334064953066 10140.365487955227 3732.883026539495 10241.22636753681 3716.832 10284.703 C 3675.870765038317 10395.652698655422 1868.06 10273.86 1868.06 10273.86" bx:d="M 306.632 10307.519 R 480.124 10117.763 R 642.773 10085.233 R 805.422 9895.475 R 1190.357 9879.21 R 1325.898 9640.658 R 1526.497 9478.01 R 1824.686 9478.01 R 2128.297 9727.405 R 2372.27 9705.718 R 2643.351 9928.005 R 2854.795 9852.102 R 3185.514 10052.703 R 3499.969 10101.498 R 3716.832 10284.703 R 1868.06 10273.86 1@a9735a50"></path>
    <path style="fill: rgb(216, 216, 216); stroke: rgb(0, 0, 0);" d="M 3050.178 7191.138 L 3058.6758333333332 7195.001833333333 C 3067.173666666667 7198.8656666666675 3084.1693333333333 7206.593333333333 3129.0144999999998 7235.182 C 3173.8596666666667 7263.770666666666 3246.5543333333335 7313.220333333334 3245.7821666666664 7384.303333333334 C 3245.0099999999998 7455.386333333333 3170.771 7548.102666666667 3022.262166666667 7778.347166666667 C 2873.7533333333336 8008.591666666667 2650.9746666666665 8376.364333333333 2527.353833333333 8559.477166666667 C 2403.7329999999997 8742.59 2379.27 8741.043 2367.0385 8740.2695 L 2354.807 8739.496" bx:d="M 3050.178 7191.138 U 3101.165 7214.321 U 3319.249 7362.67 U 3096.532 7640.819 U 2428.196 8744.137 U 2354.807 8739.496 1@c5ef6c2f"></path>
    <path style="fill: rgb(216, 216, 216); stroke: rgb(0, 0, 0);" d="M 1873.647 7733.182 L 1969.0661666666667 7788.643833333333 C 2064.4853333333335 7844.105666666666 2255.3236666666667 7955.029333333333 2350.7428333333332 8019.436833333333 C 2446.162 8083.844333333334 2446.162 8101.735666666667 2390.1143333333334 8195.951500000001 C 2334.0666666666666 8290.167333333333 2221.9713333333334 8460.707666666667 2220.447166666667 8573.400833333333 C 2218.9230000000002 8686.094 2327.97 8740.94 2378.6511666666665 8776.7325 C 2429.3323333333333 8812.525 2421.6476666666667 8829.264000000001 2356.9751666666666 8908.005333333334 C 2292.302666666667 8986.746666666668 2170.642333333333 9127.490333333333 2039.4238333333333 9223.505666666666 C 1908.2053333333333 9319.521 1767.4286666666667 9370.807999999999 1661.2756666666667 9405.993 C 1555.1226666666669 9441.178 1483.5933333333335 9460.260999999999 1438.8831666666667 9461.4545 C 1394.173 9462.648 1376.2820000000002 9445.952 1348.8491666666669 9365.442666666666 C 1321.4163333333333 9284.933333333332 1284.4416666666668 9140.610666666667 1275.496 8996.885833333334 C 1266.5503333333334 8853.161 1285.6336666666668 8710.034 1348.8311666666668 8548.4195 C 1412.0286666666668 8386.804999999998 1519.3403333333335 8206.703 1572.9961666666668 8116.652000000001 L 1626.652 8026.601" bx:d="M 1873.647 7733.182 U 2446.162 8065.953 U 2446.162 8119.627 U 2109.876 8631.248 U 2437.017 8795.786 U 2413.963 8846.003 U 2048.982 9268.234 U 1626.652 9422.095 U 1412.064 9479.344 U 1358.391 9429.256 U 1247.467 8996.288 U 1304.717 8566.907 U 1626.652 8026.601 1@38212ff5"></path>
    <path style="fill: rgb(150, 150, 150);" d="M 2746.733 8316.425 L 2700.8128333333334 8394.547166666665 C 2654.8926666666666 8472.669333333333 2563.0523333333335 8628.913666666665 2449.1458333333335 8771.445 C 2335.2393333333334 8913.976333333332 2199.2666666666664 9042.794666666667 2052.5605 9140.005166666668 C 1905.8543333333334 9237.215666666665 1748.4146666666666 9302.818333333335 1673.8696666666665 9352.317333333332 C 1599.3246666666666 9401.816333333334 1607.6743333333332 9435.211666666668 1737.6826666666666 9524.666666666666 C 1867.691 9614.121666666666 2119.358 9759.636333333334 2307.8095 9767.390166666666 C 2496.261 9775.144 2621.497 9645.137 2779.534333333333 9436.408666666666 C 2937.5716666666667 9227.680333333332 3128.4103333333333 8940.230666666668 3223.8296666666665 8796.505833333335 L 3319.249 8652.781" bx:d="M 2746.733 8316.425 U 2471.212 8785.158 U 2063.294 9171.613 U 1590.975 9368.421 U 1616.024 9468.607 U 2371.025 9905.151 U 2746.733 9515.13 U 3319.249 8652.781 1@3d49cc8b"></path>
    <path d="M 3347.7 5663.206 C 3324.7 5672.206 2883.7 6361.207 2883.7 6388.207 C 2883.7 6398.207 2930.7 6485.207 2988.7 6583.207 C 3046.7 6681.207 3093.7 6765.207 3093.7 6770.207 C 3093.7 6775.207 3060.7 6832.207 3019.7 6897.207 C 2978.7 6962.207 2941.7 7027.207 2938.7 7042.207 C 2935.7 7057.207 2939.7 7091.207 2948.7 7116.207 L 2964.7 7162.207 L 2712.7 7560.207 C 2574.7 7779.207 2456.7 7963.207 2451.7 7970.207 C 2444.7 7978.207 2360.7 7928.207 2153.7 7791.207 C 1918.7 7637.207 1859.7 7602.207 1839.7 7607.207 C 1820.7 7612.207 1752.7 7712.207 1535.701 8055.207 C 1381.701 8299.207 1243.701 8521.208 1229.701 8550.208 C 1163.701 8683.208 1128.701 8889.208 1143.701 9063.208 C 1157.701 9221.208 1180.701 9307.208 1250.701 9455.208 L 1296.701 9551.208 L 1260.701 9595.208 C 1224.701 9638.208 1163.701 9756.208 1163.701 9781.208 C 1163.701 9790.208 1156.701 9792.208 1142.701 9788.208 C 1093.701 9772.208 1004.701 9766.208 946.701 9774.208 C 803.701 9794.208 685.701 9871.208 608.701 9994.208 C 594.701 10015.208 577.701 10033.208 570.701 10033.208 C 543.701 10033.208 415.701 10103.208 372.701 10142.208 C 316.701 10191.208 263.701 10270.208 263.701 10304.208 C 263.701 10318.208 269.701 10338.208 277.701 10349.208 C 291.701 10368.208 322.701 10368.208 2006.7 10371.208 C 3118.7 10372.208 3730.698 10370.208 3747.698 10363.208 C 3762.698 10358.208 3779.698 10342.208 3785.698 10328.208 C 3800.698 10295.208 3779.698 10252.208 3710.698 10177.208 C 3613.7 10071.208 3502.7 10023.208 3352.7 10023.208 L 3263.7 10023.208 L 3200.7 9960.208 C 3070.7 9827.208 2887.7 9782.208 2718.7 9840.208 L 2670.7 9856.208 L 2632.7 9812.208 C 2597.7 9772.208 2595.7 9767.208 2611.7 9755.208 C 2691.7 9697.208 2744.7 9648.208 2788.7 9593.208 C 2817.7 9557.208 2962.7 9335.208 3112.7 9099.208 C 3326.7 8760.208 3383.7 8663.208 3383.7 8637.208 C 3383.7 8604.208 3376.7 8599.208 3094.7 8413.207 L 2804.7 8222.207 L 2821.7 8194.207 C 2830.7 8179.207 2948.7 7993.207 3082.7 7781.207 L 3326.7 7396.207 L 3362.7 7396.207 C 3428.7 7396.207 3455.7 7372.207 3534.7 7247.207 C 3575.7 7182.207 3611.7 7126.207 3614.7 7121.207 C 3617.7 7116.207 3709.698 7124.207 3818.698 7138.207 C 3927.698 7153.207 4027.698 7162.207 4039.698 7159.207 C 4067.698 7152.207 4503.698 6468.207 4503.698 6431.207 C 4503.698 6418.207 4497.698 6400.207 4491.698 6391.207 C 4479.698 6377.207 3449.7 5693.206 3396.7 5664.206 C 3371.7 5651.206 3375.7 5652.206 3347.7 5663.206 Z M 3878.698 6136.207 C 4137.698 6306.207 4349.698 6447.207 4351.698 6448.207 C 4352.698 6449.207 4272.698 6579.207 4172.698 6737.207 C 4025.698 6968.207 3987.698 7023.207 3969.698 7023.207 C 3958.698 7022.207 3866.698 7012.207 3765.698 6999.207 C 3628.699 6983.207 3576.7 6980.207 3560.7 6988.207 C 3548.7 6994.207 3501.7 7057.207 3456.7 7128.207 C 3411.7 7200.207 3368.7 7258.207 3361.7 7257.207 C 3354.7 7256.207 3284.7 7214.207 3205.7 7163.207 L 3063.7 7071.207 L 3085.7 7034.207 C 3097.7 7014.207 3135.7 6953.207 3170.7 6899.207 C 3230.7 6804.207 3238.7 6786.207 3233.7 6754.207 C 3232.7 6746.207 3187.7 6664.207 3133.7 6573.207 C 3079.7 6482.207 3033.7 6403.207 3031.7 6397.207 C 3026.7 6380.207 3387.7 5814.207 3398.7 5821.207 C 3404.7 5824.207 3620.699 5966.207 3878.698 6136.207 Z M 3140.7 7284.207 C 3175.7 7307.207 3203.7 7330.207 3203.7 7335.207 C 3203.7 7340.207 3112.7 7489.207 3000.7 7666.207 C 2888.7 7843.207 2786.7 8006.207 2774.7 8028.207 C 2761.7 8050.207 2661.7 8211.207 2550.7 8385.207 L 2350.7 8701.208 L 2276.7 8651.208 C 2205.7 8604.208 2202.7 8600.208 2216.7 8580.208 C 2223.7 8568.208 2351.7 8367.207 2498.7 8133.207 C 2646.7 7899.207 2776.7 7696.207 2787.7 7682.207 C 2799.7 7668.207 2867.7 7564.207 2938.7 7450.207 C 3010.7 7336.207 3070.7 7243.207 3072.7 7243.207 C 3075.7 7243.207 3105.7 7262.207 3140.7 7284.207 Z M 2125.7 7924.207 C 2259.7 8012.207 2370.7 8087.207 2372.7 8089.207 C 2374.7 8090.207 2303.7 8207.207 2214.7 8347.207 C 2088.7 8546.208 2052.7 8609.208 2055.7 8630.208 C 2057.7 8654.208 2081.7 8674.208 2203.7 8756.208 C 2341.7 8849.208 2372.7 8863.208 2401.7 8845.208 C 2408.7 8840.208 2484.7 8725.208 2571.7 8588.208 C 2657.7 8452.207 2731.7 8339.207 2736.7 8339.207 C 2751.7 8337.207 3233.7 8658.208 3229.7 8668.208 C 3227.7 8674.208 3114.7 8856.208 2977.7 9072.208 C 2716.7 9486.208 2652.7 9570.208 2539.7 9648.208 L 2486.7 9684.208 L 2414.7 9663.208 C 2355.7 9645.208 2324.7 9641.208 2246.7 9645.208 L 2151.7 9649.208 L 2122.7 9607.208 C 2052.7 9505.208 1922.7 9424.208 1785.7 9396.208 C 1688.7 9376.208 1578.701 9387.208 1483.701 9427.208 C 1447.701 9442.208 1412.701 9455.208 1404.701 9456.208 C 1386.701 9458.208 1341.701 9371.208 1309.701 9273.208 C 1239.701 9058.208 1252.701 8785.208 1339.701 8610.208 C 1374.701 8540.208 1866.7 7763.207 1875.7 7763.207 C 1879.7 7763.207 1992.7 7835.207 2125.7 7924.207 Z M 1857.7 9551.208 C 1940.7 9590.208 2011.7 9657.208 2052.7 9732.208 C 2089.7 9801.208 2106.7 9808.208 2182.7 9786.208 C 2328.7 9744.208 2478.7 9808.208 2570.7 9950.208 C 2612.7 10017.208 2638.7 10024.208 2701.7 9990.208 C 2727.7 9976.208 2777.7 9959.208 2813.7 9952.208 C 2868.7 9942.208 2888.7 9943.208 2943.7 9957.208 C 3026.7 9978.208 3093.7 10022.208 3139.7 10084.208 C 3159.7 10111.208 3183.7 10138.208 3193.7 10143.208 C 3203.7 10149.208 3259.7 10153.208 3316.7 10153.208 C 3430.7 10153.208 3490.7 10167.208 3546.7 10205.208 L 3583.7 10230.208 L 2021.7 10236.208 C 1162.701 10240.208 458.701 10241.208 456.701 10239.208 C 447.701 10231.208 552.701 10173.208 604.701 10158.208 C 665.701 10141.208 676.701 10132.208 716.701 10062.208 C 796.701 9922.208 979.701 9860.208 1133.701 9921.208 C 1229.701 9959.208 1254.701 9948.208 1272.701 9860.208 C 1297.701 9744.208 1380.701 9626.208 1479.701 9568.208 C 1588.7 9504.208 1742.7 9497.208 1857.7 9551.208 Z" style="transform-box: fill-box; transform-origin: 50% 50%;"></path>
    <path d="M 2974.071 6344.31 L 3203.699 6745.51 L 2984.915 7081.652 L 3369.85 7336.468 L 3581.294 7054.543 L 4015.023 7108.76 L 4503.699 6441.899 L 3353.586 5709.98 L 2974.071 6344.31 Z M 4202.933 6467.915 C 4248.799 6499.716 4187.571 6601.746 4187.571 6601.746 C 4187.571 6601.746 4029.485 6859.699 3900.221 6921.617 C 3810.444 6964.62 3641.876 6953.148 3602.031 6937.887 C 3475.907 6889.579 3393.406 6773.924 3308.598 6677.163 C 3220.514 6576.665 3120.674 6459.542 3115.137 6326.02 C 3112.02 6250.852 3178.473 6175.594 3220.716 6113.34 C 3273.101 6036.14 3340.456 5943.944 3371.344 5926.567 C 3427.947 5894.723 3949.95 6292.51 4202.933 6467.915 Z" style="stroke: rgb(0, 0, 0); fill: rgb(255, 56, 56); transform-box: fill-box; transform-origin: 50% 50%;"></path>
  </g>
</svg>