<?xml version="1.0" encoding="utf-8"?>
<svg xmlns="http://www.w3.org/2000/svg" width="3213.998" height="657.387" >
  <defs/>
  <g transform="translate(-45,75)">
    <path d="M 612.987 440.177 Q 606.487 440.177 602.237 435.927 Q 597.987 431.677 597.987 425.177 L 597.987 181.677 Q 597.987 174.677 602.237 170.677 Q 606.487 166.677 612.987 166.677 Q 619.987 166.677 623.987 170.677 Q 627.987 174.677 627.987 181.677 L 627.987 425.177 Q 627.987 431.677 623.987 435.927 Q 619.987 440.177 612.987 440.177 Z M 612.416 109.177 Q 602.987 109.177 596.237 102.341 Q 589.487 95.504 589.487 85.677 Q 589.487 74.177 596.737 68.427 Q 603.987 62.677 612.94 62.677 Q 621.487 62.677 628.737 68.427 Q 635.987 74.177 635.987 85.677 Q 635.987 95.504 629.13 102.341 Q 622.273 109.177 612.416 109.177 Z M 1084.476 440.177 Q 1077.976 440.177 1073.726 435.927 Q 1069.476 431.677 1069.476 425.177 L 1069.476 280.677 Q 1069.476 242.177 1049.226 217.677 Q 1028.976 193.177 996.476 193.177 Q 961.976 193.177 940.226 215.927 Q 918.476 238.677 919.476 277.177 L 889.476 277.177 Q 890.476 242.677 904.476 217.177 Q 918.476 191.677 942.476 177.427 Q 966.476 163.177 996.476 163.177 Q 1026.976 163.177 1049.976 178.177 Q 1072.976 193.177 1086.226 219.677 Q 1099.476 246.177 1099.476 280.677 L 1099.476 425.177 Q 1099.476 431.677 1095.476 435.927 Q 1091.476 440.177 1084.476 440.177 Z M 722.976 440.177 Q 716.476 440.177 712.226 435.927 Q 707.976 431.677 707.976 425.177 L 707.976 181.677 Q 707.976 174.677 712.226 170.677 Q 716.476 166.677 722.976 166.677 Q 729.976 166.677 733.976 170.677 Q 737.976 174.677 737.976 181.677 L 737.976 425.177 Q 737.976 431.677 733.976 435.927 Q 729.976 440.177 722.976 440.177 Z M 904.476 440.177 Q 897.976 440.177 893.726 435.927 Q 889.476 431.677 889.476 425.177 L 889.476 280.677 Q 889.476 242.177 869.226 217.677 Q 848.976 193.177 816.476 193.177 Q 781.976 193.177 759.976 215.177 Q 737.976 237.177 737.976 272.177 L 712.976 272.177 Q 714.476 240.177 728.226 215.677 Q 741.976 191.177 764.976 177.177 Q 787.976 163.177 816.476 163.177 Q 846.976 163.177 869.976 178.177 Q 892.976 193.177 906.226 219.677 Q 919.476 246.177 919.476 280.677 L 919.476 425.177 Q 919.476 431.677 915.476 435.927 Q 911.476 440.177 904.476 440.177 Z M 1354.455 440.177 Q 1348.455 440.177 1344.955 437.927 Q 1341.455 435.677 1337.455 430.677 L 1251.455 316.677 L 1238.955 307.177 L 1151.455 191.677 Q 1147.455 186.677 1147.955 180.927 Q 1148.455 175.177 1152.455 170.927 Q 1156.455 166.677 1162.955 166.677 Q 1169.455 166.677 1173.955 171.177 L 1257.455 282.177 L 1270.955 292.677 L 1363.455 415.677 Q 1369.955 423.677 1368.205 429.177 Q 1366.455 434.677 1361.955 437.427 Q 1357.455 440.177 1354.455 440.177 Z M 1151.955 440.177 Q 1145.455 440.177 1141.455 436.177 Q 1137.455 432.177 1136.955 426.427 Q 1136.455 420.677 1140.455 415.677 L 1237.455 295.177 L 1254.955 317.177 L 1162.455 435.677 Q 1159.455 440.177 1151.955 440.177 Z M 1264.455 309.177 L 1246.455 287.177 L 1337.455 175.677 Q 1341.455 171.177 1345.205 168.927 Q 1348.955 166.677 1352.955 166.677 Q 1359.955 166.677 1363.455 170.927 Q 1366.955 175.177 1366.955 180.927 Q 1366.955 186.677 1362.955 191.677 Z M 1414.503 222.677 Q 1403.984 222.677 1396.484 215.423 Q 1388.984 208.168 1388.984 197.177 Q 1388.984 186.584 1396.332 179.38 Q 1403.679 172.177 1414.484 172.177 Q 1425.484 172.177 1432.484 179.592 Q 1439.484 187.008 1439.484 197.177 Q 1439.484 208.177 1432.253 215.427 Q 1425.021 222.677 1414.503 222.677 Z M 1412.984 448.177 Q 1401.984 448.177 1394.734 440.927 Q 1387.484 433.677 1387.484 422.677 Q 1387.484 411.677 1394.984 404.677 Q 1402.484 397.677 1412.984 397.677 Q 1423.484 397.677 1430.734 404.927 Q 1437.984 412.177 1437.984 422.677 Q 1437.984 433.177 1430.734 440.677 Q 1423.484 448.177 1412.984 448.177 Z M 1513.003 440.177 Q 1506.476 440.177 1502.226 435.946 Q 1497.976 431.715 1497.976 425.177 L 1497.976 64.677 Q 1497.976 58.139 1502.199 53.908 Q 1506.423 49.677 1512.949 49.677 Q 1519.476 49.677 1523.726 53.908 Q 1527.976 58.139 1527.976 64.677 L 1527.976 425.177 Q 1527.976 431.715 1523.753 435.946 Q 1519.53 440.177 1513.003 440.177 Z M 1723.985 443.177 Q 1684.985 443.177 1654.235 424.677 Q 1623.485 406.177 1605.735 374.677 Q 1587.985 343.177 1587.985 303.677 Q 1587.985 263.677 1604.485 232.177 Q 1620.985 200.677 1649.985 182.427 Q 1678.985 164.177 1716.485 164.177 Q 1748.485 164.177 1774.985 176.427 Q 1801.485 188.677 1820.985 213.677 Q 1824.985 218.677 1823.985 224.177 Q 1822.985 229.677 1817.485 233.177 Q 1812.985 236.677 1807.485 235.927 Q 1801.985 235.177 1797.985 230.177 Q 1765.985 192.177 1716.485 192.177 Q 1686.985 192.177 1664.735 206.677 Q 1642.485 221.177 1630.235 246.177 Q 1617.985 271.177 1617.985 303.677 Q 1617.985 335.177 1631.485 360.427 Q 1644.985 385.677 1668.735 400.427 Q 1692.485 415.177 1723.985 415.177 Q 1744.485 415.177 1762.735 409.177 Q 1780.985 403.177 1794.485 390.677 Q 1798.985 386.677 1804.485 386.177 Q 1809.985 385.677 1813.985 389.677 Q 1818.985 394.177 1819.235 399.927 Q 1819.485 405.677 1814.985 409.677 Q 1778.485 443.177 1723.985 443.177 Z M 2004.577 443.177 Q 1964.465 443.177 1932.647 424.995 Q 1900.829 406.813 1882.647 374.995 Q 1864.465 343.177 1864.465 303.674 Q 1864.465 263.677 1882.647 231.859 Q 1900.829 200.041 1932.647 181.859 Q 1964.465 163.677 2004.465 163.677 Q 2044.465 163.677 2076.032 181.859 Q 2107.6 200.041 2125.782 231.859 Q 2143.965 263.677 2143.965 303.674 Q 2143.965 343.177 2125.664 374.995 Q 2107.363 406.813 2076.026 424.995 Q 2044.689 443.177 2004.577 443.177 Z M 2004.595 415.177 Q 2035.965 415.177 2060.715 400.427 Q 2085.465 385.677 2099.715 360.427 Q 2113.965 335.177 2113.965 303.427 Q 2113.965 271.677 2099.715 246.427 Q 2085.465 221.177 2060.696 206.427 Q 2035.927 191.677 2004.696 191.677 Q 1973.465 191.677 1948.465 206.427 Q 1923.465 221.177 1908.965 246.459 Q 1894.465 271.742 1894.465 303.677 Q 1894.465 335.177 1908.965 360.427 Q 1923.465 385.677 1948.345 400.427 Q 1973.225 415.177 2004.595 415.177 Z M 2435.623 440.177 Q 2428.978 440.177 2424.728 435.835 Q 2420.478 431.493 2420.478 425.177 L 2420.478 290.677 Q 2420.478 257.463 2407.809 236.034 Q 2395.14 214.606 2373.306 203.891 Q 2351.472 193.177 2323.978 193.177 Q 2297.225 193.177 2275.659 203.458 Q 2254.092 213.739 2241.535 231.595 Q 2228.978 249.451 2228.978 272.177 L 2203.978 272.177 Q 2205.978 241.177 2222.478 216.427 Q 2238.978 191.677 2265.478 177.427 Q 2291.978 163.177 2323.978 163.177 Q 2360.193 163.177 2388.758 177.842 Q 2417.322 192.506 2433.9 220.842 Q 2450.478 249.177 2450.478 290.677 L 2450.478 425.177 Q 2450.478 431.493 2446.178 435.835 Q 2441.878 440.177 2435.623 440.177 Z M 2213.978 440.177 Q 2207.478 440.177 2203.228 436.032 Q 2198.978 431.888 2198.978 425.177 L 2198.978 181.677 Q 2198.978 174.754 2203.228 170.715 Q 2207.478 166.677 2213.978 166.677 Q 2220.978 166.677 2224.978 170.715 Q 2228.978 174.754 2228.978 181.677 L 2228.978 425.177 Q 2228.978 431.888 2224.978 436.032 Q 2220.978 440.177 2213.978 440.177 Z M 2608.476 443.177 Q 2582.476 443.177 2553.976 433.677 Q 2525.476 424.177 2506.476 401.677 Q 2502.476 396.677 2503.226 390.927 Q 2503.976 385.177 2509.476 381.177 Q 2514.476 377.677 2520.226 378.677 Q 2525.976 379.677 2529.476 384.177 Q 2543.976 401.177 2564.726 407.927 Q 2585.476 414.677 2609.976 414.677 Q 2651.976 414.677 2669.476 399.677 Q 2686.976 384.677 2686.976 364.677 Q 2686.976 345.177 2668.226 332.427 Q 2649.476 319.677 2610.476 314.177 Q 2560.476 307.177 2536.476 287.177 Q 2512.476 267.177 2512.476 240.677 Q 2512.476 215.677 2524.976 198.427 Q 2537.476 181.177 2559.226 172.427 Q 2580.976 163.677 2608.976 163.677 Q 2642.976 163.677 2666.476 175.927 Q 2689.976 188.177 2704.476 208.677 Q 2708.476 213.677 2707.226 219.427 Q 2705.976 225.177 2699.476 228.677 Q 2694.476 231.177 2688.976 230.177 Q 2683.476 229.177 2679.476 224.177 Q 2666.976 208.177 2649.226 199.927 Q 2631.476 191.677 2607.976 191.677 Q 2576.476 191.677 2558.976 205.177 Q 2541.476 218.677 2541.476 237.677 Q 2541.476 250.677 2548.726 260.427 Q 2555.976 270.177 2572.476 276.927 Q 2588.976 283.677 2616.476 287.677 Q 2653.976 292.677 2675.726 304.677 Q 2697.476 316.677 2706.726 332.427 Q 2715.976 348.177 2715.976 366.177 Q 2715.976 389.677 2700.976 407.177 Q 2685.976 424.677 2661.476 433.927 Q 2636.976 443.177 2608.476 443.177 Z" style="stroke-linecap: round; stroke-miterlimit: 1; stroke-width: 14px; fill: rgba(47, 47, 47, 0.9);"/>
    <g class="open-imx-icon Sign" transform="matrix(0, -40.285473, 40.285473, 0, 414.005872, 221.385672)" style="transform-origin: 5.25px 0px;">
      <g name="sign-normal-base" fill="black" stroke="black" stroke-width="0.375">
        <line x1="0" x2="0" y1="-1" y2="1" style="stroke-width: 0.297874px;"/>
        <line x1="10" x2="0" y1="0" y2="0" style="stroke-width: 0.297874px;"/>
      </g>
      <g name="sign-doghouse" fill="black" stroke="black" stroke-width="0.375">
        <path d="M2,-2 L0,-2 L0,2 L2,2 L4,0 L2,-2 Z " fill="#FFFFFF" transform="translate(6.5, 0)" style="stroke-width: 0.297874px;"/>
      </g>
      <g name="RS-300" fill="black" stroke="black" stroke-width="0.375">
        <line x1="2.5875" x2="2.4219" y1="0.675" y2="0.3582" stroke="red" transform="translate(6.9, 0)" style="stroke-width: 0.297874px;"/>
        <line x1="2.2113" x2="2.124" y1="1.0323" y2="0.864" stroke="red" transform="translate(6.9, 0)" style="stroke-width: 0.297874px;"/>
        <line x1="1.8486" x2="1.7073" y1="1.4139" y2="1.1448" stroke="red" transform="translate(6.9, 0)" style="stroke-width: 0.297874px;"/>
        <line x1="1.4787" x2="1.1934" y1="1.7838" y2="1.2366" stroke="red" transform="translate(6.9, 0)" style="stroke-width: 0.297874px;"/>
        <line x1="0.9243" x2="0.5058" y1="1.8" y2="0.9981" stroke="red" transform="translate(6.9, 0)" style="stroke-width: 0.297874px;"/>
        <line x1="0.3618" x2="-0.3375" y1="1.8" y2="0.459" stroke="red" transform="translate(6.9, 0)" style="stroke-width: 0.297874px;"/>
        <line x1="2.9574" x2="2.2905" y1="0.3051" y2="-0.972" stroke="red" transform="translate(6.9, 0)" style="stroke-width: 0.297874px;"/>
        <line x1="0" x2="-0.3375" y1="0.0288" y2="-0.6183" stroke="red" transform="translate(6.9, 0)" style="stroke-width: 0.297874px;"/>
        <line x1="0.198" x2="-0.3375" y1="-0.6714" y2="-1.6965" stroke="red" transform="translate(6.9, 0)" style="stroke-width: 0.297874px;"/>
        <line x1="0.5679" x2="0.171" y1="-1.0404" y2="-1.8" stroke="red" transform="translate(6.9, 0)" style="stroke-width: 0.297874px;"/>
        <line x1="1.0359" x2="0.7335" y1="-1.2213" y2="-1.8" stroke="red" transform="translate(6.9, 0)" style="stroke-width: 0.297874px;"/>
        <line x1="1.6218" x2="1.296" y1="-1.1763" y2="-1.8" stroke="red" transform="translate(6.9, 0)" style="stroke-width: 0.297874px;"/>
      </g>
      <g name="sign-doghouse-no-fill" fill="black" stroke="black" stroke-width="0.375">
        <path d="M2,-2 L0,-2 L0,2 L2,2 L4,0 L2,-2 Z " fill="none" transform="translate(6.5, 0)" style="stroke-width: 0.297874px;"/>
      </g>
      <g name="RS-301" class="doghouse-s" fill="black" stroke="black" stroke-width="0.375">
        <path d="M 1.193 0.331 C 1.193 0.331 0.885 0.151 0.719 0.158 C 0.547 0.166 0.250 0.331 0.182 0.462 C 0.114 0.602 0.152 0.89 0.265 1.000 C 0.401 1.134 0.890 0.974 1.036 1.104 C 1.162 1.216 1.209 1.494 1.173 1.65 C 1.140 1.791 1.004 1.952 0.870 2.009 C 0.689 2.069 0.440 2.041 0.294 1.969 C 0.114 1.897 -0.078 1.588 -0.078 1.588" fill="none" transform="translate(9.35, -.65), rotate(90)" style="stroke-width: 0.297874px;"/>
      </g>
      <g name="sign-bottom-plate" fill="black" stroke="black" stroke-width="0.375">
        <path d="M 0 2 L 1 2 L 1 -2 L 0 -2 Z" fill="#FFFFFF" transform="translate(4.75, 0)" style="stroke-width: 0.297874px;"/>
      </g>
      <g name="arrow-sign" fill="black" stroke="black" stroke-width="0.375">
        <rect x="0" y="0" width="1.412" height="2.384" fill="#bcbcbc" transform="rotate(180), translate(-4, -1.15)" style="stroke-width: 0.297874px;"/>
        <line x1="0.755" y1="1.228" x2="0.743" y2="1.958" stroke="#000000" transform="rotate(180), translate(-4, -1.15)" style="stroke-width: 0.297874px;"/>
        <path d="M 0.751 0.527 L 1.047 1.279 L 0.455 1.279 L 0.751 0.527 Z" fill="#000000" stroke="#000000" transform="rotate(180), translate(-4, -1.15)" style="stroke-width: 0.297874px;"/>
      </g>
    </g>
    <g class="open-imx-icon Signal" transform="matrix(0, -43.312698, 43.312698, 0, -8.711548, 136.110218)" style="transform-origin: 6.75px 0.578px;">
      <g name="post-ground" fill="black" stroke="black" stroke-width="0.375" transform="matrix(1, 0, 0, 1, -0.088564, 3.631124)">
        <line x1="0" x2="0" y1="-1" y2="1" style="stroke-width: 0.277055px;"/>
      </g>
      <g name="post-ground" fill="black" stroke="black" stroke-width="0.375" transform="matrix(1, 0, 0, 1, -0.088564, 3.631124)">
        <line x1="0" x2="0" y1="-1" y2="1" style="stroke-width: 0.277055px;"/>
      </g>
      <g name="signal-post-high" fill="black" stroke="black" stroke-width="0.375" transform="matrix(1, 0, 0, 1, -0.088564, 3.631124)">
        <line x1="8.5" x2="0" y1="-0" y2="-0" style="stroke-width: 0.277055px;"/>
      </g>
      <g name="signal-aspect" class="animated" fill="black" stroke="black" stroke-width="0.375" transform="matrix(1, 0, 0, 1, -0.088564, 3.631124)">
        <circle class="aspect-3-colors" cx="0" cy="0" r="1.5" fill="gold" transform="translate(10, 0)" style="stroke-width: 0.277055px;"/>
      </g>
      <g name="illuminated-sign-integrated" class="animated" fill="black" stroke="black" stroke-width="0.375" transform="matrix(1, 0, 0, 1, -0.088564, 3.631124)">
        <circle class="aspect-on-off" cx="0" cy="0" r="1.05" fill="gold" transform="translate(7.25, 0)" style="stroke-width: 0.277055px;"/>
        <line x1="-0.75" x2="0.75" y1="-0.75" y2="0.75" transform="translate(7.25, 0)" style="stroke-width: 0.277055px;"/>
        <line x1="0.75" x2="-0.75" y1="-0.75" y2="0.75" transform="translate(7.25, 0)" style="stroke-width: 0.277055px;"/>
      </g>
    </g>
    <g class="open-imx-icon Signal" transform="matrix(0, -38.272881, 38.272881, 0, 207.967352, 332.41804)" style="transform-origin: 2.625px 0px;">
      <g name="post-ground" fill="black" stroke="black" stroke-width="0.375">
        <line x1="0" x2="0" y1="-1" y2="1" style="stroke-width: 0.313538px;"/>
      </g>
      <g name="signal-post-low" fill="black" stroke="black" stroke-width="0.375">
        <line x1="0" x2="2.5" y1="-0" y2="-0" style="stroke-width: 0.313538px;"/>
      </g>
      <g name="signal-aspect" class="animated" fill="black" stroke="black" stroke-width="0.375">
        <circle class="aspect-3-colors" cx="0" cy="0" r="1.5" fill="gold" transform="translate(3.75, 0)" style="stroke-width: 0.313538px;"/>
      </g>
    </g>
    <g class="open-imx-icon Sign" transform="matrix(0, -39.072361, 39.072361, 0, 284.504342, 221.384574)" style="transform-origin: 5.413px 0.001px;">
      <g name="sign-normal-base" fill="black" stroke="black" stroke-width="0.375">
        <line x1="0" x2="0" y1="-1" y2="1" style="stroke-width: 0.307122px;"/>
        <line x1="10" x2="0" y1="0" y2="0" style="stroke-width: 0.307122px;"/>
      </g>
      <g name="sign-rectangle-45-degrees" fill="black" stroke="black" stroke-width="0.375">
        <polygon points="0 -2.827 2.826 0 0 2.829 -2.83 0" transform="translate(8, 0)" style="stroke-width: 0.307122px;"/>
      </g>
      <g name="RS-306a" fill="#FFFFFF" stroke="#FFFFFF" stroke-width="0.2">
        <polygon points="0,-2.75 2.828,0.078 0,2.906 -2.828,0.078" fill="#3a61b4" transform="translate(8.1, 0.05), rotate(90), scale(0.8)" style="stroke-width: 0.383903px;"/>
        <rect x="0.804" y="-1.019" width="0.272" height="0.562" transform="translate(8.1, 0.05), rotate(90), scale(0.8)" style="stroke-width: 0.383903px;"/>
        <rect x="-0.995" y="-1.019" width="0.272" height="0.562" transform="translate(8.1, 0.05), rotate(90), scale(0.8)" style="stroke-width: 0.383903px;"/>
        <rect x="-0.995" y="0.564" width="2.071" height="0.294" transform="translate(8.1, 0.05), rotate(90), scale(0.8)" style="stroke-width: 0.383903px;"/>
      </g>
    </g>
  </g>
</svg>